<!DOCTYPE svg PUBLIC "-//W3C//DTD SVG 1.1//EN" "http://www.w3.org/Graphics/SVG/1.1/DTD/svg11.dtd">
<!-- Uploaded to: SVG Repo, www.svgrepo.com, Transformed by: SVG Repo Mixer Tools -->
<svg width="800px" height="800px" viewBox="0 0 960 960" fill="none" xmlns="http://www.w3.org/2000/svg">
<g id="SVGRepo_bgCarrier" stroke-width="0"/>
<g id="SVGRepo_tracerCarrier" stroke-linecap="round" stroke-linejoin="round"/>
<g id="SVGRepo_iconCarrier"> <path d="M410.743 884.745C377.113 883.26 343.043 879.115 310.866 869.407C283.156 860.364 272.847 842.713 271.82 813.438C272.035 720.873 250.079 621.894 276.757 531.952C290.122 495.404 330.224 502.355 361.755 500.261C455.049 495.515 548.213 498.478 641.562 500.162C549.982 446.71 457.242 395.023 364.262 343.943C307.191 313.432 348.594 245.654 370.429 204.712C400.979 155.328 474.267 217.955 510.99 233.875C513.705 69.6619 720.828 86.4819 690.35 311.305C833.531 134.295 997.467 334.499 843.717 432.441C873.409 457.665 937.548 476.236 915.324 525.794C905.258 549.457 892.517 572.246 880.194 594.8C874.934 608.546 861.898 612.79 850.601 618.581C841.327 621.361 831.334 615.59 822.642 610.189C820.378 673.721 856.149 871.729 760.575 871.169C722.415 872.226 684.246 872.935 646.106 874.397C567.656 877.679 489.191 882.658 410.743 884.745ZM600.964 831.918C652.333 830.971 703.891 828.769 755.281 827.528C769.209 827.142 772.46 826.106 775.325 812.559C791.831 738.729 774.98 662.338 778.405 587.674C779.738 583.03 778.052 580.945 774.426 578.68C753.566 565.651 732.685 552.645 712.106 539.18C702.463 532.871 693.04 529.421 680.86 530.251C653.002 533.023 625.147 529.847 597.427 533.488C598.602 632.7 599.78 731.98 600.964 831.918ZM458.831 531.56C417.806 533.54 377.188 532.258 336.803 538.339C317.814 541.905 316.94 542.091 311.989 559.569C309.085 590.609 307.462 622.187 307.589 653.343C308.717 707.002 312.085 760.613 314.239 814.255C314.51 820.996 317.005 825.482 323.176 827.426C369.467 842.964 419.887 840.861 467.8 838.489C468.261 736.244 472.551 634.364 458.831 531.56ZM547.188 402.645C560.958 378.23 574.459 354.292 588.166 329.987C529.472 296.33 472.237 258.615 410.802 230.183C406.757 228.387 404.395 229.498 402.548 233.55C397.143 245.412 390.959 256.941 386.029 268.988C383.419 280.471 371.685 298.412 385.638 306.294C439.456 338.629 492.227 372.149 547.188 402.645ZM712.656 403.991C698.961 426.924 685.534 449.408 672.665 470.959C728.74 505.984 784.545 540.841 840.365 575.707C846.111 567.505 885.213 512.205 873.241 503.38C819.898 470.209 766.455 436.393 712.656 403.991ZM709.331 351.517C731.936 366.017 755.769 377.475 777.635 392.861C791.23 402.313 802.666 402.638 816.657 394.963C889.196 367.478 866.473 260.489 784.958 291.655C755.243 305.624 734.143 330.326 709.331 351.517ZM649.758 316.619C652.058 271.691 659.021 221.147 629.688 184.296C607.486 159.366 568.651 169.356 561.713 207.729C556.91 225.983 562.029 244.102 563.285 262.266C588.772 283.08 620.9 297.443 649.758 316.619ZM501.834 530.778C505.93 633.295 512.02 734.985 499.973 837.085C507.153 836.734 512.092 836.493 517 836.253C521.373 734.823 518.717 632.308 514.404 530.778C510.242 530.778 507.013 530.778 501.834 530.778ZM623.717 351.414C609.012 374.805 594.54 397.825 579.86 421.175C584.051 423.585 588.115 425.922 591.098 427.637C604.454 403.385 617.556 379.591 630.833 355.483C628.162 353.956 625.832 352.623 623.717 351.414Z" fill="#cfcfcf"/> <path d="M40.9177 576.526C40.7467 565.339 46.6347 557.521 55.3237 551.569C108.493 514.123 162.569 478.203 219.566 446.8C249.097 424.586 281.866 457.326 251.935 481.083C196.059 517.118 141.448 555.03 86.8147 592.911C70.8877 607.507 40.7337 600.674 40.9177 576.526Z" fill="#cfcfcf"/> <path d="M238.914 275.916C239.081 287.844 235.7 294.048 228.839 297.945C216.032 306.053 203.4 295.832 196.015 285.408C181.772 266.299 167.958 246.869 153.857 227.653C127.898 192.278 101.755 157.036 75.9331 121.561C65.7721 109.253 60.1001 88.5086 75.8541 78.5306C88.7501 68.9926 104.671 76.2626 112.878 88.2296C135.261 120.313 157.391 152.573 179.595 184.782C198.592 214.423 224.421 244.299 238.914 275.916Z" fill="#cfcfcf"/> <path d="M108.549 313.491C132.763 319.914 164.227 329.77 189.393 337.644C225.805 343.719 225.053 383.944 192.18 383.904C158.633 378.861 125.185 369.928 92.9936 359.444C68.1516 346.322 76.7116 311.468 108.549 313.491Z" fill="#cfcfcf"/> <path d="M306.507 236.236C307.976 257.225 277.613 266.627 269.573 246.431C263.943 230.473 259.421 213.954 256.376 197.315C253.208 174.535 287.815 165.909 296.214 187.879C301.16 203.393 303.709 220.169 306.507 236.236Z" fill="#cfcfcf"/> <path d="M600.968 831.916C599.783 731.978 598.606 632.698 597.43 533.486C625.14 529.838 653.012 533.022 680.863 530.247C693.044 529.419 702.466 532.869 712.109 539.178C732.688 552.643 753.569 565.649 774.429 578.678C778.055 580.943 779.741 583.028 778.406 587.672C774.984 662.336 791.833 738.724 775.33 812.557C772.463 826.104 769.212 827.139 755.284 827.525C703.897 828.767 652.335 830.97 600.968 831.916Z" fill="white"/> <path d="M458.833 531.555C472.553 634.359 468.263 736.239 467.802 838.484C419.89 840.861 369.468 842.954 323.178 827.423C317.008 825.477 314.512 820.991 314.242 814.25C312.088 760.608 308.721 706.998 307.593 653.338C307.464 622.181 309.088 590.603 311.99 559.563C316.941 542.085 317.816 541.899 336.805 538.334C377.192 532.253 417.805 533.537 458.833 531.555Z" fill="white"/> <path d="M547.19 402.641C492.231 372.146 439.457 338.624 385.643 306.291C366.147 296.209 397.184 248.572 402.549 233.547C404.095 212.71 566.92 320.259 588.168 329.983C574.46 354.288 560.959 378.226 547.19 402.641Z" fill="white"/> <path d="M712.658 403.984C766.458 436.387 819.898 470.201 873.242 503.371C885.363 511.89 846.002 567.673 840.368 575.7C784.547 540.834 728.742 505.977 672.668 470.952C685.537 449.402 698.963 426.918 712.658 403.984Z" fill="white"/> <path d="M501.837 530.773C507.017 530.773 510.245 530.773 514.408 530.773C518.721 632.301 521.376 734.819 517.004 836.248C512.096 836.488 507.157 836.729 499.977 837.08C512.022 734.979 505.933 633.29 501.837 530.773Z" fill="white"/> <path d="M623.717 351.414C625.832 352.624 628.162 353.956 630.832 355.483C617.556 379.591 604.453 403.385 591.097 427.637C588.114 425.922 584.05 423.585 579.859 421.175C594.54 397.825 609.012 374.805 623.717 351.414Z" fill="white"/> </g>
</svg>